<?xml version="1.0" encoding="UTF-8" standalone="no"?>
<!-- Created with Inkscape (http://www.inkscape.org/) -->

<svg
   width="180"
   height="180"
   viewBox="0 0 180 180"
   version="1.1"
   id="svg5"
   inkscape:version="1.2.2 (b0a84865, 2022-12-01)"
   sodipodi:docname="drawing.svg"
   xmlns:inkscape="http://www.inkscape.org/namespaces/inkscape"
   xmlns:sodipodi="http://sodipodi.sourceforge.net/DTD/sodipodi-0.dtd"
   xmlns:xlink="http://www.w3.org/1999/xlink"
   xmlns="http://www.w3.org/2000/svg"
   xmlns:svg="http://www.w3.org/2000/svg">
  <sodipodi:namedview
     id="namedview7"
     pagecolor="#505050"
     bordercolor="#ffffff"
     borderopacity="1"
     inkscape:showpageshadow="0"
     inkscape:pageopacity="0"
     inkscape:pagecheckerboard="1"
     inkscape:deskcolor="#505050"
     inkscape:document-units="px"
     showgrid="false"
     inkscape:zoom="3.4296751"
     inkscape:cx="99.572115"
     inkscape:cy="114.7339"
     inkscape:window-width="1630"
     inkscape:window-height="945"
     inkscape:window-x="41"
     inkscape:window-y="169"
     inkscape:window-maximized="0"
     inkscape:current-layer="layer1" />
  <defs
     id="defs2">
    <linearGradient
       inkscape:collect="always"
       id="linearGradient1698">
      <stop
         style="stop-color:#231c1c;stop-opacity:1;"
         offset="0"
         id="stop1694" />
      <stop
         style="stop-color:#d6cccc;stop-opacity:1;"
         offset="1"
         id="stop1696" />
    </linearGradient>
    <linearGradient
       inkscape:collect="always"
       xlink:href="#linearGradient1698"
       id="linearGradient1700"
       x1="21.576387"
       y1="64.437584"
       x2="37.32132"
       y2="95.927444"
       gradientUnits="userSpaceOnUse"
       gradientTransform="matrix(0.5573668,-0.01905115,0.0341607,0.99941635,37.920238,5.9821584)" />
  </defs>
  <g
     inkscape:label="Layer 1"
     inkscape:groupmode="layer"
     id="layer1">
    <g
       id="g921"
       transform="translate(23.034252,-2.9157281)">
      <g
         id="g929">
        <path
           style="fill:#000000"
           d="M 78.141513,22.451106 C 76.975222,21.576388 58.022989,20.118524 58.022989,20.118524 l -1.457864,25.658407 18.077514,4.082019 1.749437,-11.954485 3.498874,-7.28932 z"
           id="path2244"
           inkscape:label="face" />
        <path
           style="fill:#e6e6e6"
           d="M 21.867961,52.483106 18.66066,74.059493 21.284815,86.013979 35.863456,97.676891 43.735921,67.353319 Z"
           id="path2185"
           transform="translate(-1.7494369)"
           sodipodi:nodetypes="cccccc" />
        <path
           style="fill:#b3b3b3"
           d="m 39.945475,74.059494 -6.414602,28.865706 -0.583145,25.65841 7.28932,-2.04101 4.665165,-35.280311 8.747184,-5.24831 z"
           id="path860" />
        <path
           style="fill:#999999"
           d="m 75.225785,88.638134 6.414602,22.159536 4.373592,16.0365 9.621903,-2.33258 1.457864,-36.155029 -13.703922,-11.662912 z"
           id="path862" />
      </g>
      <path
         style="fill:#445500"
         d="M 84.847688,44.902213 101.17577,55.690407 102.34206,76.975222 83.098251,83.681396 75.517358,98.55161 47.817941,97.385318 43.735921,77.84994 23.325825,75.517358 21.576388,49.275805 39.653902,39.070757 57.439844,40.820193 Z"
         id="path694" />
      <path
         style="fill:#d3bc5f"
         d="m 48.984232,41.694912 2.915728,51.608387 13.995495,2.915728 18.66066,-49.85895 z"
         id="path804" />
      <path
         style="fill:#ff8080"
         d="m 41.111766,94.178018 -6.123029,4.082019 4.08202,1.749433 1.749436,-2.041006 z"
         id="path990" />
    </g>
    <path
       style="fill:#2b1100"
       d="m 62.979727,127.41732 4.373592,19.2438 13.703922,3.79045 16.036505,-4.66516 6.123034,-23.32583 z"
       id="path629" />
    <path
       style="fill:#2b1100"
       d="m 59.480853,111.08924 -2.624155,35.28031 8.164038,9.33033 4.373593,-7.87247 8.164038,-32.65615 z"
       id="path559" />
    <path
       style="fill:#2b1100"
       d="m 91.845435,115.46283 4.956738,38.19604 11.079767,0.29157 2.33258,-33.53087 -6.4146,-9.33033 z"
       id="path615" />
    <path
       style="fill:#c83737;stroke-width:1.09771"
       d="m 57.798423,128.00046 1.054009,-40.237044 22.836851,-6.997748 28.106897,7.872466 2.45935,43.444346 -10.54008,1.16629 -0.70268,-7.28932 -7.378056,2.04101 v 7.28932 l -9.837413,0.29157 0.351336,-5.83145 -8.080731,-0.58315 -2.108018,5.24831 -6.324051,0.29158 -2.459354,-8.16404 -2.459353,8.74718 -7.026723,-0.58314 z"
       id="path499"
       inkscape:label="path499" />
    <g
       id="g636"
       transform="translate(21.284815,-2.9157281)">
      <path
         style="fill:#2b2200;stroke-width:1.10605"
         d="m 54.815688,62.963446 -6.706174,-15.337914 -9.621903,-2.140174 8.164039,22.828523 4.956737,34.599479 -1.457864,7.13392 3.498874,5.70712 13.412349,-0.35669 5.831456,-6.77722 -2.332582,-3.92365 2.332582,-23.898609 2.04101,-11.057567 8.164039,-22.471828 -7.872466,1.783479 -9.913476,14.267827 z"
         id="path113" />
      <path
         style="fill:#b3b3b3"
         d="m 57.731416,65.895455 -0.583145,10.496621 3.498873,10.496621 -1.457864,11.662913 1.749437,2.91573 4.373592,-19.53538 2.624156,-9.621903 z"
         id="path169" />
      <path
         style="fill:#d4aa00"
         d="m 55.398834,74.351067 -4.665165,-0.291573 1.166291,5.24831 z"
         id="path387" />
      <path
         style="fill:#d4aa00"
         d="m 67.353319,76.100503 3.498874,0.291573 -1.166291,2.915728 z"
         id="path497" />
    </g>
    <path
       style="fill:#2b1100"
       d="m 58.314562,144.91168 c 0,1.45787 3.498874,49.27581 3.498874,49.27581 l 6.123029,0.58315 0.291572,-48.98424 z"
       id="path621" />
    <path
       style="fill:#2b1100;stroke-width:1.05719"
       d="m 96.5106,148.70213 0.325876,43.73592 8.146884,-1.74943 2.607,-41.98649 z"
       id="path623" />
    <path
       style="fill:#2b1100"
       d="m 98.260037,189.23075 -3.498874,9.33033 13.412347,-1.74944 -6.12303,-10.20504 z"
       id="path625" />
    <path
       style="fill:#2b1100"
       d="m 62.97973,190.54283 -3.49888,9.33033 13.41235,-1.74944 -6.12303,-10.20504 z"
       id="path625-0" />
    <path
       style="fill:url(#linearGradient1700);fill-opacity:1;stroke-width:0.746788"
       d="M 64.529854,113.30931 46.81805,80.655997 l 4.072268,-14.14286 9.697831,2.877696 2.942008,5.150816 1.019618,39.350471 z"
       id="path992"
       sodipodi:nodetypes="ccccccc" />
    <path
       style="fill:#ffffff;stroke-width:0.795557"
       d="m 48.984232,86.888698 3.137176,-7.289321 3.321715,-1.457864 8.119749,1.457864 -0.184539,6.123029 -4.428955,-2.624155 -6.089811,2.332583 -1.845398,4.956737 z"
       id="path1803" />
    <path
       style="fill:#786721"
       d="m 99.717901,60.938717 -2.04101,20.70167 9.330329,40.820193 27.11628,-36.738174 1.74943,-21.867961 z"
       id="path1967" />
    <path
       style="fill:#808080;stroke-width:0.807265"
       d="M 90.034494,2.3325825 79.430812,14.365294 77.266795,40.47884 l 11.252888,3.840227 1.947615,-16.897 -8.439666,-3.328197 0.216401,-3.584212 19.692557,3.840227 -1.29841,3.328198 -7.35766,1.02406 -1.731214,15.360909 10.820084,-5.376318 2.59682,-16.384969 -5.193639,-18.4330917 z"
       id="path638"
       inkscape:label="helm" />
    <path
       style="fill:#a0892c"
       d="m 115.46283,62.396581 -8.16404,59.772429 26.82471,-36.155031 2.33258,-22.159534 z"
       id="path2303" />
  </g>
</svg>
